<svg width="49" height="48" viewBox="0 0 49 48" fill="none" xmlns="http://www.w3.org/2000/svg">
<rect x="0.899902" width="48" height="48" rx="24" fill="#3643FB" fill-opacity="0.3"/>
<path fill-rule="evenodd" clip-rule="evenodd" d="M24.286 13.2106C24.6471 12.9298 25.1527 12.9298 25.5138 13.2106L34.5138 20.2106C34.7574 20.4001 34.8999 20.6914 34.8999 21V32C34.8999 32.7957 34.5838 33.5587 34.0212 34.1213C33.4586 34.6839 32.6956 35 31.8999 35H17.8999C17.1043 35 16.3412 34.6839 15.7786 34.1213C15.216 33.5587 14.8999 32.7957 14.8999 32V21C14.8999 20.6914 15.0424 20.4001 15.286 20.2106L24.286 13.2106ZM16.8999 21.4891V32C16.8999 32.2652 17.0053 32.5196 17.1928 32.7071C17.3803 32.8946 17.6347 33 17.8999 33H31.8999C32.1651 33 32.4195 32.8946 32.607 32.7071C32.7945 32.5196 32.8999 32.2652 32.8999 32V21.4891L24.8999 15.2669L16.8999 21.4891Z" fill="#313DDF"/>
<path fill-rule="evenodd" clip-rule="evenodd" d="M20.8999 24C20.8999 23.4477 21.3476 23 21.8999 23H27.8999C28.4522 23 28.8999 23.4477 28.8999 24V34C28.8999 34.5523 28.4522 35 27.8999 35C27.3476 35 26.8999 34.5523 26.8999 34V25H22.8999V34C22.8999 34.5523 22.4522 35 21.8999 35C21.3476 35 20.8999 34.5523 20.8999 34V24Z" fill="#313DDF"/>
</svg>
