<svg width="25" height="24" viewBox="0 0 25 24" fill="none" xmlns="http://www.w3.org/2000/svg">
<path fill-rule="evenodd" clip-rule="evenodd" d="M11.7 4C7.83396 4 4.69995 7.13401 4.69995 11C4.69995 14.866 7.83396 18 11.7 18C15.5659 18 18.7 14.866 18.7 11C18.7 7.13401 15.5659 4 11.7 4ZM2.69995 11C2.69995 6.02944 6.72939 2 11.7 2C16.6705 2 20.7 6.02944 20.7 11C20.7 15.9706 16.6705 20 11.7 20C6.72939 20 2.69995 15.9706 2.69995 11Z" fill="#676D75"/>
<path fill-rule="evenodd" clip-rule="evenodd" d="M16.6427 15.9429C17.0333 15.5524 17.6664 15.5524 18.057 15.9429L22.407 20.2929C22.7975 20.6834 22.7975 21.3166 22.407 21.7071C22.0164 22.0977 21.3833 22.0977 20.9927 21.7071L16.6427 17.3571C16.2522 16.9666 16.2522 16.3334 16.6427 15.9429Z" fill="#676D75"/>
</svg>
